<svg id="visual" viewBox="0 0 960 540" width="960" height="540" xmlns="http://www.w3.org/2000/svg" xmlns:xlink="http://www.w3.org/1999/xlink" version="1.1"><rect x="0" y="0" width="960" height="540" fill="#001220"></rect><path d="M0 264L22.8 257.7C45.7 251.3 91.3 238.7 137 237C182.7 235.3 228.3 244.7 274 245.2C319.7 245.7 365.3 237.3 411.2 233.3C457 229.3 503 229.7 548.8 242.3C594.7 255 640.3 280 686 285.5C731.7 291 777.3 277 823 277C868.7 277 914.3 291 937.2 298L960 305L960 541L937.2 541C914.3 541 868.7 541 823 541C777.3 541 731.7 541 686 541C640.3 541 594.7 541 548.8 541C503 541 457 541 411.2 541C365.3 541 319.7 541 274 541C228.3 541 182.7 541 137 541C91.3 541 45.7 541 22.8 541L0 541Z" fill="#6972fa"></path><path d="M0 350L22.8 349.3C45.7 348.7 91.3 347.3 137 346.7C182.7 346 228.3 346 274 341.8C319.7 337.7 365.3 329.3 411.2 329.8C457 330.3 503 339.7 548.8 339.5C594.7 339.3 640.3 329.7 686 325C731.7 320.3 777.3 320.7 823 315.2C868.7 309.7 914.3 298.3 937.2 292.7L960 287L960 541L937.2 541C914.3 541 868.7 541 823 541C777.3 541 731.7 541 686 541C640.3 541 594.7 541 548.8 541C503 541 457 541 411.2 541C365.3 541 319.7 541 274 541C228.3 541 182.7 541 137 541C91.3 541 45.7 541 22.8 541L0 541Z" fill="#5e65ec"></path><path d="M0 347L22.8 347C45.7 347 91.3 347 137 347.3C182.7 347.7 228.3 348.3 274 345.7C319.7 343 365.3 337 411.2 343.7C457 350.3 503 369.7 548.8 371.8C594.7 374 640.3 359 686 349.5C731.7 340 777.3 336 823 339.7C868.7 343.3 914.3 354.7 937.2 360.3L960 366L960 541L937.2 541C914.3 541 868.7 541 823 541C777.3 541 731.7 541 686 541C640.3 541 594.7 541 548.8 541C503 541 457 541 411.2 541C365.3 541 319.7 541 274 541C228.3 541 182.7 541 137 541C91.3 541 45.7 541 22.8 541L0 541Z" fill="#5359de"></path><path d="M0 418L22.8 416C45.7 414 91.3 410 137 406C182.7 402 228.3 398 274 395.8C319.7 393.7 365.3 393.3 411.2 390.3C457 387.3 503 381.7 548.8 377.7C594.7 373.7 640.3 371.3 686 376.5C731.7 381.7 777.3 394.3 823 397.8C868.7 401.3 914.3 395.7 937.2 392.8L960 390L960 541L937.2 541C914.3 541 868.7 541 823 541C777.3 541 731.7 541 686 541C640.3 541 594.7 541 548.8 541C503 541 457 541 411.2 541C365.3 541 319.7 541 274 541C228.3 541 182.7 541 137 541C91.3 541 45.7 541 22.8 541L0 541Z" fill="#484dd0"></path><path d="M0 416L22.8 420.2C45.7 424.3 91.3 432.7 137 437.2C182.7 441.7 228.3 442.3 274 442.8C319.7 443.3 365.3 443.7 411.2 445.3C457 447 503 450 548.8 451C594.7 452 640.3 451 686 445C731.7 439 777.3 428 823 430.8C868.7 433.7 914.3 450.3 937.2 458.7L960 467L960 541L937.2 541C914.3 541 868.7 541 823 541C777.3 541 731.7 541 686 541C640.3 541 594.7 541 548.8 541C503 541 457 541 411.2 541C365.3 541 319.7 541 274 541C228.3 541 182.7 541 137 541C91.3 541 45.7 541 22.8 541L0 541Z" fill="#3d41c3"></path><path d="M0 475L22.8 474.7C45.7 474.3 91.3 473.7 137 478.8C182.7 484 228.3 495 274 500.2C319.7 505.3 365.3 504.7 411.2 499.8C457 495 503 486 548.8 482.7C594.7 479.3 640.3 481.7 686 481.3C731.7 481 777.3 478 823 481.3C868.7 484.7 914.3 494.3 937.2 499.2L960 504L960 541L937.2 541C914.3 541 868.7 541 823 541C777.3 541 731.7 541 686 541C640.3 541 594.7 541 548.8 541C503 541 457 541 411.2 541C365.3 541 319.7 541 274 541C228.3 541 182.7 541 137 541C91.3 541 45.7 541 22.8 541L0 541Z" fill="#3135b5"></path></svg>